' 迭代器模式(iterator pattern): 
' 提供一种方法顺序访问一个聚合对象中的各个元素, 而又不暴露其内部的表示.
@startuml
skinparam classAttributeIconSize 0

package "class Iterator(迭代器模式)" #DDDDDD {
    class Iterator<< (I,#FF7700) interface>>{
    +next():Object
    +hasNext():boolean
    }
    note right: 迭代器接口

    class ConcreteIterator{
    +next():Object
    +hasNext():boolean
    }
    note right: 具体迭代器类

    class Aggregate<< (I,#FF7700) interface>>{
    +add(Object):void
    +remove(Object):void
    +iterator():Iterator
    }
    note right: 容器接口

    class ConcreteAggregate{
    +add(Object):void
    +remove(Object):void
    +iterator():Iterator
    }
    note right: 具体容器类

    Iterator <|.. ConcreteIterator
    Iterator o-- Aggregate
    Aggregate <|.. ConcreteAggregate
}
@enduml
